<?xml version="1.0" encoding="UTF-8"?>
<svg id="Layer_2" data-name="Layer 2" xmlns="http://www.w3.org/2000/svg" viewBox="0 0 351.36 174.91">
  <defs>
    <style>
      .cls-1 {
        fill: #ff0;
        stroke: red;
        stroke-miterlimit: 10;
        stroke-width: 2px;
      }
    </style>
  </defs>
  <g id="Type">
    <path class="cls-1" d="m15.93,87.23c0-4.25-1.26-8.22-3.77-11.92-2.52-3.69-5.58-6.8-9.2-9.32,16.99-.94,29.18-5.39,36.58-13.33,7.39-7.94,10.7-17.26,9.91-27.96,10.07,3.3,19.74,4.96,29.03,4.96,12.27,0,22.85-2.72,31.74-8.14,8.89-5.43,15.61-12.07,20.17-19.94,6.92,4.25,14.86,7.83,23.83,10.74,8.97,2.91,17.78,4.37,26.43,4.37,15.73,0,29.18-5.03,40.35-15.1,4.56,7.87,11.28,14.51,20.17,19.94,8.89,5.43,19.47,8.14,31.74,8.14,9.28,0,18.96-1.65,29.03-4.96l-.23,3.07c0,8.18,3.14,16.32,9.44,24.42,6.29,8.1,18.72,12.71,37.28,13.8-3.62,2.52-6.69,5.63-9.2,9.32-2.52,3.7-3.77,7.67-3.77,11.92,0,7.39,4.32,14.71,12.98,21.95-16.99.94-29.19,5.39-36.58,13.33-7.4,7.95-10.7,17.27-9.91,27.96-10.38-3.3-20.14-4.96-29.26-4.96-12.27,0-22.81,2.72-31.62,8.14-8.81,5.43-15.49,12-20.06,19.7-6.93-4.09-14.86-7.59-23.83-10.5-8.97-2.91-17.78-4.37-26.43-4.37-15.73,0-29.18,4.96-40.35,14.87-4.57-7.71-11.25-14.28-20.06-19.7-8.81-5.43-19.35-8.14-31.62-8.14-9.13,0-18.88,1.65-29.26,4.96l.23-3.07c0-8.18-3.15-16.36-9.44-24.54-6.29-8.18-18.72-12.74-37.28-13.69,8.65-7.24,12.98-14.55,12.98-21.95Z"/>
  </g>
</svg>